<?xml version="1.0" standalone="no"?>
<!DOCTYPE svg PUBLIC "-//W3C//DTD SVG 20010904//EN"
 "http://www.w3.org/TR/2001/REC-SVG-20010904/DTD/svg10.dtd">
<svg version="1.0" xmlns="http://www.w3.org/2000/svg"
 width="1024.000000pt" height="1024.000000pt" viewBox="0 0 1024.000000 1024.000000"
 preserveAspectRatio="xMidYMid meet">
<metadata>
Created by potrace 1.14, written by Peter Selinger 2001-2017
</metadata>
<g transform="translate(0.000000,1024.000000) scale(0.100000,-0.100000)"
fill="#000000" stroke="none">
<path d="M1829 10236 c-2 -2 -32 -7 -66 -10 -35 -4 -68 -8 -75 -11 -7 -2 -32
-6 -56 -9 -24 -3 -46 -7 -50 -10 -4 -2 -24 -7 -45 -10 -54 -9 -239 -70 -327
-108 -395 -173 -719 -459 -932 -823 -29 -49 -53 -92 -54 -95 0 -3 -19 -44 -42
-91 -35 -73 -106 -264 -117 -318 -2 -9 -10 -48 -19 -87 -8 -38 -18 -92 -22
-120 -3 -27 -9 -58 -12 -69 -4 -11 -8 -1509 -8 -3330 -2 -3122 -1 -3317 16
-3425 81 -528 338 -972 750 -1296 219 -172 469 -294 749 -364 122 -30 153 -36
266 -48 39 -4 1553 -7 3365 -7 3118 0 3301 1 3400 18 342 58 661 197 920 401
36 28 70 55 76 61 311 285 498 573 608 939 39 126 52 193 75 371 11 80 10
6657 -1 6692 -4 11 -10 43 -13 70 -43 301 -199 659 -399 913 -79 100 -121 145
-275 290 -43 41 -226 170 -296 210 -142 81 -384 182 -491 205 -123 26 -217 45
-254 51 -45 7 -6663 17 -6671 10z m3409 -2587 c50 -27 98 -87 111 -139 5 -19
12 -75 15 -125 12 -209 97 -403 267 -611 68 -84 233 -250 380 -384 246 -225
491 -479 605 -630 214 -283 355 -615 399 -935 2 -22 9 -69 14 -105 5 -36 7
-150 6 -255 -3 -187 -5 -204 -20 -295 -7 -44 -10 -56 -20 -102 -3 -13 -7 -32
-9 -43 -66 -302 -256 -642 -495 -886 -180 -182 -378 -321 -591 -413 -36 -15
-81 -35 -100 -43 -38 -18 -256 -79 -310 -88 -163 -27 -242 -33 -405 -30 -99 2
-189 5 -200 8 -11 2 -42 8 -70 11 -295 42 -659 205 -905 406 -68 56 -212 197
-269 265 -107 128 -225 324 -290 480 -103 247 -145 457 -146 725 0 258 23 405
96 625 110 326 379 737 526 801 47 21 135 21 184 0 52 -22 96 -62 122 -110 22
-40 22 -49 27 -566 l5 -525 29 -83 c90 -259 317 -430 581 -437 122 -4 201 12
302 61 91 44 88 41 177 129 152 149 218 380 170 588 -20 84 -81 207 -145 292
-66 88 -37 57 -290 312 -247 248 -346 370 -412 504 -189 383 -114 790 255
1391 89 145 147 207 214 228 48 16 144 5 192 -21z"/>
</g>
</svg>
